<svg id="visual" viewBox="0 0 540 960" width="540" height="960" xmlns="http://www.w3.org/2000/svg" xmlns:xlink="http://www.w3.org/1999/xlink" version="1.1"><rect x="0" y="0" width="540" height="960" fill="#ffffff"></rect><path d="M0 690L12.8 673C25.7 656 51.3 622 77 601.8C102.7 581.7 128.3 575.3 154 577C179.7 578.7 205.3 588.3 231.2 585.8C257 583.3 283 568.7 308.8 571.8C334.7 575 360.3 596 386 611C411.7 626 437.3 635 463 637C488.7 639 514.3 634 527.2 631.5L540 629L540 961L527.2 961C514.3 961 488.7 961 463 961C437.3 961 411.7 961 386 961C360.3 961 334.7 961 308.8 961C283 961 257 961 231.2 961C205.3 961 179.7 961 154 961C128.3 961 102.7 961 77 961C51.3 961 25.7 961 12.8 961L0 961Z" fill="#faa269"></path><path d="M0 675L12.8 666.2C25.7 657.3 51.3 639.7 77 639C102.7 638.3 128.3 654.7 154 656.8C179.7 659 205.3 647 231.2 654.3C257 661.7 283 688.3 308.8 686.5C334.7 684.7 360.3 654.3 386 636.5C411.7 618.7 437.3 613.3 463 613.8C488.7 614.3 514.3 620.7 527.2 623.8L540 627L540 961L527.2 961C514.3 961 488.7 961 463 961C437.3 961 411.7 961 386 961C360.3 961 334.7 961 308.8 961C283 961 257 961 231.2 961C205.3 961 179.7 961 154 961C128.3 961 102.7 961 77 961C51.3 961 25.7 961 12.8 961L0 961Z" fill="#fc9662"></path><path d="M0 732L12.8 716.8C25.7 701.7 51.3 671.3 77 659.5C102.7 647.7 128.3 654.3 154 665.3C179.7 676.3 205.3 691.7 231.2 702.2C257 712.7 283 718.3 308.8 708.8C334.7 699.3 360.3 674.7 386 678.8C411.7 683 437.3 716 463 721.7C488.7 727.3 514.3 705.7 527.2 694.8L540 684L540 961L527.2 961C514.3 961 488.7 961 463 961C437.3 961 411.7 961 386 961C360.3 961 334.7 961 308.8 961C283 961 257 961 231.2 961C205.3 961 179.7 961 154 961C128.3 961 102.7 961 77 961C51.3 961 25.7 961 12.8 961L0 961Z" fill="#fd895d"></path><path d="M0 704L12.8 715.2C25.7 726.3 51.3 748.7 77 759.2C102.7 769.7 128.3 768.3 154 753.8C179.7 739.3 205.3 711.7 231.2 702.8C257 694 283 704 308.8 719.7C334.7 735.3 360.3 756.7 386 754.7C411.7 752.7 437.3 727.3 463 714.8C488.7 702.3 514.3 702.7 527.2 702.8L540 703L540 961L527.2 961C514.3 961 488.7 961 463 961C437.3 961 411.7 961 386 961C360.3 961 334.7 961 308.8 961C283 961 257 961 231.2 961C205.3 961 179.7 961 154 961C128.3 961 102.7 961 77 961C51.3 961 25.7 961 12.8 961L0 961Z" fill="#fe7b5a"></path><path d="M0 792L12.8 790.5C25.7 789 51.3 786 77 782.3C102.7 778.7 128.3 774.3 154 777.3C179.7 780.3 205.3 790.7 231.2 783.7C257 776.7 283 752.3 308.8 751.2C334.7 750 360.3 772 386 772.5C411.7 773 437.3 752 463 740C488.7 728 514.3 725 527.2 723.5L540 722L540 961L527.2 961C514.3 961 488.7 961 463 961C437.3 961 411.7 961 386 961C360.3 961 334.7 961 308.8 961C283 961 257 961 231.2 961C205.3 961 179.7 961 154 961C128.3 961 102.7 961 77 961C51.3 961 25.7 961 12.8 961L0 961Z" fill="#ff6c59"></path><path d="M0 810L12.8 806.2C25.7 802.3 51.3 794.7 77 797C102.7 799.3 128.3 811.7 154 818.5C179.7 825.3 205.3 826.7 231.2 827.7C257 828.7 283 829.3 308.8 827C334.7 824.7 360.3 819.3 386 816.3C411.7 813.3 437.3 812.7 463 807.2C488.7 801.7 514.3 791.3 527.2 786.2L540 781L540 961L527.2 961C514.3 961 488.7 961 463 961C437.3 961 411.7 961 386 961C360.3 961 334.7 961 308.8 961C283 961 257 961 231.2 961C205.3 961 179.7 961 154 961C128.3 961 102.7 961 77 961C51.3 961 25.7 961 12.8 961L0 961Z" fill="#ff5c5a"></path><path d="M0 865L12.8 866.5C25.7 868 51.3 871 77 871C102.7 871 128.3 868 154 858.2C179.7 848.3 205.3 831.7 231.2 827C257 822.3 283 829.7 308.8 829C334.7 828.3 360.3 819.7 386 818.3C411.7 817 437.3 823 463 827.2C488.7 831.3 514.3 833.7 527.2 834.8L540 836L540 961L527.2 961C514.3 961 488.7 961 463 961C437.3 961 411.7 961 386 961C360.3 961 334.7 961 308.8 961C283 961 257 961 231.2 961C205.3 961 179.7 961 154 961C128.3 961 102.7 961 77 961C51.3 961 25.7 961 12.8 961L0 961Z" fill="#ff495c"></path><path d="M0 903L12.8 894.3C25.7 885.7 51.3 868.3 77 865C102.7 861.7 128.3 872.3 154 872.2C179.7 872 205.3 861 231.2 856.7C257 852.3 283 854.7 308.8 856.2C334.7 857.7 360.3 858.3 386 864.7C411.7 871 437.3 883 463 882C488.7 881 514.3 867 527.2 860L540 853L540 961L527.2 961C514.3 961 488.7 961 463 961C437.3 961 411.7 961 386 961C360.3 961 334.7 961 308.8 961C283 961 257 961 231.2 961C205.3 961 179.7 961 154 961C128.3 961 102.7 961 77 961C51.3 961 25.7 961 12.8 961L0 961Z" fill="#ff3160"></path><path d="M0 909L12.8 907.7C25.7 906.3 51.3 903.7 77 905.3C102.7 907 128.3 913 154 916.7C179.7 920.3 205.3 921.7 231.2 919.8C257 918 283 913 308.8 909.7C334.7 906.3 360.3 904.7 386 903.5C411.7 902.3 437.3 901.7 463 902C488.7 902.3 514.3 903.7 527.2 904.3L540 905L540 961L527.2 961C514.3 961 488.7 961 463 961C437.3 961 411.7 961 386 961C360.3 961 334.7 961 308.8 961C283 961 257 961 231.2 961C205.3 961 179.7 961 154 961C128.3 961 102.7 961 77 961C51.3 961 25.7 961 12.8 961L0 961Z" fill="#ff0066"></path></svg>